<?xml version="1.0" encoding="utf-8"?>
<!-- Generator: Adobe Illustrator 22.1.0, SVG Export Plug-In . SVG Version: 6.00 Build 0)  -->
<svg version="1.1" id="Layer_1" xmlns="http://www.w3.org/2000/svg" xmlns:xlink="http://www.w3.org/1999/xlink" x="0px" y="0px"
	 viewBox="0 0 24 24" style="enable-background:new 0 0 24 24;" xml:space="preserve">
<style type="text/css">
	.st0{fill:#707070;}
	.st1{fill:none;}
</style>
<path class="st0" d="M16.5,12c0-1.8-1-3.3-2.5-4v2.2l2.5,2.4C16.5,12.4,16.5,12.2,16.5,12z M19,12c0,0.9-0.2,1.8-0.5,2.6l1.5,1.5
	c0.7-1.2,1-2.6,1-4.1c0-4.3-3-7.9-7-8.8v2.1C16.9,6.1,19,8.8,19,12z M4.3,3L3,4.3L7.7,9H3v6h4l5,5v-6.7l4.2,4.2
	c-0.7,0.5-1.4,0.9-2.2,1.2v2.1c1.4-0.3,2.6-1,3.7-1.8l2,2l1.3-1.3l-9-9L4.3,3z M12,4L9.9,6.1L12,8.2V4z"/>
<path class="st1" d="M0,0h24v24H0V0z"/>
</svg>
